HIERARCHY
ROOT Hips
{
	OFFSET 0.000000 0.000000 0.000000 
	CHANNELS 6 Xposition Yposition Zposition Zrotation Yrotation Xrotation
	JOINT LeftUpLeg
	{
		OFFSET 1.363060 -1.794630 0.839290 
		CHANNELS 3 Zrotation Yrotation Xrotation
		JOINT LeftLeg
		{
			OFFSET 2.448110 -6.726130 0.000000 
			CHANNELS 3 Zrotation Yrotation Xrotation
			JOINT LeftFoot
			{
				OFFSET 2.562200 -7.039590 0.000000 
				CHANNELS 3 Zrotation Yrotation Xrotation
				JOINT LeftToeBase
				{
					OFFSET 0.157640 -0.433110 2.322550 
					CHANNELS 3 Zrotation Yrotation Xrotation
					End Site
					{
						OFFSET 0.000000 0.000000 0.000000 
					}
				}
			}
		}
	}
	JOINT RightUpLeg
	{
		OFFSET -1.305520 -1.794630 0.839290 
		CHANNELS 3 Zrotation Yrotation Xrotation
		JOINT RightLeg
		{
			OFFSET -2.542530 -6.985550 0.000000 
			CHANNELS 3 Zrotation Yrotation Xrotation
			JOINT RightFoot
			{
				OFFSET -2.568260 -7.056230 0.000000 
				CHANNELS 3 Zrotation Yrotation Xrotation
				JOINT RightToeBase
				{
					OFFSET -0.164730 -0.452590 2.363150 
					CHANNELS 3 Zrotation Yrotation Xrotation
					End Site
					{
						OFFSET 0.000000 0.000000 0.000000 
					}
				}
			}
		}
	}
	JOINT Spine
	{
		OFFSET 0.028270 2.035590 -0.193380 
		CHANNELS 3 Zrotation Yrotation Xrotation
		JOINT Spine1
		{
			OFFSET 0.056720 2.048850 -0.042750 
			CHANNELS 3 Zrotation Yrotation Xrotation
			JOINT Neck1
			{
				OFFSET -0.054170 1.746240 0.172020 
				CHANNELS 3 Zrotation Yrotation Xrotation
				JOINT Head
				{
					OFFSET 0.104070 1.761360 -0.123970 
					CHANNELS 3 Zrotation Yrotation Xrotation
					End Site
					{
						OFFSET 0.000000 0.000000 0.000000 
					}
				}
			}
			JOINT LeftArm
			{
				OFFSET 3.362410 1.200890 -0.311210 
				CHANNELS 3 Zrotation Yrotation Xrotation
				JOINT LeftForeArm
				{
					OFFSET 4.983000 -0.000000 -0.000000 
					CHANNELS 3 Zrotation Yrotation Xrotation
					JOINT LeftHand
					{
						OFFSET 3.483560 -0.000000 -0.000000 
						CHANNELS 3 Zrotation Yrotation Xrotation
						JOINT LeftHandIndex1
						{
							OFFSET 0.715260 -0.000000 -0.000000 
							CHANNELS 3 Zrotation Yrotation Xrotation
							End Site
							{
								OFFSET 0.000000 0.000000 0.000000 
							}
						}
					}
				}
			}
			JOINT RightArm
			{
				OFFSET -3.136600 1.374050 -0.404650 
				CHANNELS 3 Zrotation Yrotation Xrotation
				JOINT RightForeArm
				{
					OFFSET -5.241900 -0.000000 -0.000000 
					CHANNELS 3 Zrotation Yrotation Xrotation
					JOINT RightHand
					{
						OFFSET -3.444170 -0.000000 -0.000000 
						CHANNELS 3 Zrotation Yrotation Xrotation
						JOINT RightHandIndex1
						{
							OFFSET -0.622530 -0.000000 -0.000000 
							CHANNELS 3 Zrotation Yrotation Xrotation
							End Site
							{
								OFFSET 0.000000 0.000000 0.000000 
							}
						}
					}
				}
			}
		}
	}
}
MOTION
Frames: 7
Frame Time: 0.041667
8.216085 17.721355 25.266020 -171.854261 0.224852 -177.246500 3.226583 -4.446407 -30.362144 -0.065660 7.125376 19.131721 0.413652 2.531871 8.926084 1.227900 -7.027800 -19.797700 24.240873 2.112936 11.833122 0.746660 -4.029616 8.015767 0.667792 -6.098106 -0.517895 -8.220900 16.279400 -53.354600 1.221811 2.381650 -1.153996 1.101055 1.253603 -4.059434 8.242253 -20.591427 2.365458 8.049400 -10.966400 6.282000 -99.380862 9.489517 16.110155 16.379888 -26.913852 -3.758198 0.800751 -0.820179 -0.418110 -7.125000 0.000000 0.000000 93.121516 8.063369 28.980599 -18.138582 29.043010 -5.054681 0.529794 0.359506 -0.935162 7.125000 0.000000 0.000000 
8.195050 17.699811 25.165414 -171.916051 0.729440 -176.807110 3.190578 -4.295696 -30.713645 0.006084 7.246420 19.487833 0.288632 2.900731 8.975936 1.093200 -6.644300 -18.665800 23.970295 2.998208 10.810330 0.653509 -4.849573 10.284785 0.904705 -6.907204 -1.010419 -8.230100 16.285900 -53.387500 1.143381 2.735985 -1.241712 0.951122 1.432107 -4.363333 8.287256 -20.648002 2.405387 8.049800 -10.996400 6.359100 -99.403186 9.507440 15.068825 15.965463 -26.283596 -3.528802 0.795641 -0.824460 -0.090992 -7.125000 0.000000 0.000000 93.062337 8.397634 28.788597 -18.406312 29.373052 -5.194127 0.522274 0.359141 -1.182200 7.125000 0.000000 0.000000 
8.183465 17.681824 25.032898 -171.885733 0.507158 -176.765041 3.114460 -4.333577 -30.783899 0.086923 7.456763 20.136752 0.440394 2.373639 8.929990 0.935500 -6.160800 -17.251800 24.077185 3.157106 10.700687 0.591333 -5.221512 11.309513 0.925576 -6.969046 -0.963545 -8.221700 16.279900 -53.357400 1.113062 2.806821 -1.245781 0.863265 1.463019 -4.482644 8.253997 -20.767524 2.411356 7.998800 -11.050200 6.390600 -99.392487 9.583707 14.181917 15.553042 -25.664677 -3.312549 0.786070 -0.831678 0.373211 -7.125000 0.000000 0.000000 93.069205 8.717241 28.316543 -18.594342 29.606066 -5.291122 0.520206 0.352172 -1.195901 7.125000 0.000000 0.000000 
8.168933 17.659873 24.892557 -171.739819 0.298783 -176.780828 3.188150 -4.470211 -30.703907 0.171402 7.662629 20.767367 0.597580 1.873661 9.183399 0.827200 -5.802700 -16.213100 24.297955 3.161676 10.637765 0.518048 -5.593320 12.330829 0.979574 -7.154437 -1.015906 -8.220300 16.278900 -53.352400 1.096252 2.872948 -1.197422 0.724247 1.485340 -4.387389 8.289488 -20.867554 2.340415 7.990900 -11.082600 6.400100 -99.392885 9.618048 13.283507 15.155942 -25.061770 -3.099334 0.775187 -0.842887 0.765248 -7.125000 0.000000 0.000000 93.089378 8.987709 27.832964 -18.835214 29.917361 -5.418557 0.518799 0.350225 -1.162244 7.125000 0.000000 0.000000 
8.153384 17.632232 24.753436 -171.585776 0.142130 -176.781278 3.320957 -4.728342 -30.593698 0.262341 7.892225 21.471372 0.827284 1.125517 9.440654 0.745100 -5.513900 -15.380200 24.455816 2.884719 10.674221 0.461223 -5.839015 13.007572 1.019084 -7.275220 -1.263125 -8.251800 16.301400 -53.464600 1.087189 2.928384 -1.128241 0.620959 1.493800 -4.318492 9.093415 -20.920731 1.547199 8.452500 -11.061400 6.060600 -99.416624 9.588088 12.295743 14.749550 -24.427221 -2.879857 0.764736 -0.851687 1.111724 -7.125000 0.000000 0.000000 93.072694 9.226140 27.454959 -19.130679 30.304660 -5.583212 0.512404 0.359063 -1.521906 7.125000 0.000000 0.000000 
8.140275 17.603066 24.618277 -171.349447 0.318374 -176.749220 3.563798 -4.824836 -30.462736 0.365396 8.127327 22.192731 1.086016 0.265030 9.636486 0.728400 -5.453100 -15.205400 24.683760 2.903366 10.909096 0.421805 -6.019376 13.493546 0.986085 -7.127154 -1.459614 -8.257500 16.305400 -53.484800 1.047677 3.219872 -1.107676 0.429504 1.624512 -4.357200 9.307306 -21.196494 1.437948 8.498200 -11.181100 6.125600 -99.295598 9.450210 11.154599 14.190625 -23.551381 -2.622745 0.746092 -0.859237 1.936612 -7.125000 0.000000 0.000000 93.163758 9.349840 26.907391 -19.425949 30.673956 -5.750096 0.498760 0.370755 -1.700508 7.125000 0.000000 0.000000 
8.117816 17.581014 24.460356 -171.312088 0.118197 -176.783430 3.490225 -5.066820 -30.275003 0.452807 8.356984 22.918719 1.301016 -0.478640 10.016478 0.865000 -5.930400 -16.582600 24.753272 2.744930 11.243578 0.389795 -6.158461 13.848356 0.951141 -7.002145 -1.422633 -8.227700 16.284200 -53.378700 0.976166 3.320947 -1.104499 0.164742 1.668744 -4.372318 9.220615 -21.439632 1.504387 8.389400 -11.298200 6.196700 -99.069558 9.539280 10.257990 13.728967 -22.815700 -2.410230 0.730362 -0.864925 2.722196 -7.125000 0.000000 0.000000 93.357243 9.285211 26.372555 -19.677791 30.987612 -5.890854 0.490615 0.380009 -1.629686 7.125000 0.000000 0.000000 
